<?xml version="1.0" encoding="utf-8"?>
<!-- Generator: Adobe Illustrator 23.0.3, SVG Export Plug-In . SVG Version: 6.00 Build 0)  -->
<svg version="1.1" id="Layer_1" xmlns="http://www.w3.org/2000/svg" xmlns:xlink="http://www.w3.org/1999/xlink" x="0px" y="0px"
	 viewBox="0 0 432 648" style="enable-background:new 0 0 432 648;" xml:space="preserve">
<style type="text/css">
	.st0{stroke:#FFFFFF;stroke-miterlimit:10;}
	.st1{fill:#FFFFFF;}
	.st2{fill:none;stroke:#FFFFFF;stroke-miterlimit:10;}
	.st3{fill:none;}
</style>
<rect x="0.38" width="215.62" height="648"/>
<polygon class="st0" points="167.06,-0.35 91.58,-0.35 21.73,74.29 57.19,191.01 176,218.66 259.35,129.59 223.89,12.87 "/>
<polygon class="st0" points="20.22,213.35 0.38,219.92 0.38,366.12 63.85,345.1 80.07,266.63 "/>
<path class="st0" d="M432.83-0.35h-70.7l-18.4,11.44l2.61,80.09L417,128.96l15.83-9.84V14.34c-0.22-0.58-0.43-1.16-0.65-1.73
	c-0.71-1.82-0.31-3.31,0.65-4.36V-0.35z"/>
<polygon class="st0" points="357.39,354.29 266.3,387.84 249.81,483.51 324.42,545.63 415.51,512.07 432,416.4 "/>
<polygon class="st0" points="118.15,350.83 71.45,397.53 88.54,461.34 152.35,478.43 199.05,431.73 181.96,367.92 "/>
<polygon class="st0" points="432.83,555.76 409.39,579.19 421.94,626.01 432.83,628.93 "/>
<polygon class="st0" points="61.09,552.87 12.87,557.77 0.38,585.56 0.38,612.21 21.35,641.29 69.57,636.39 89.44,592.18 "/>
<polygon class="st0" points="337.4,274.66 392.24,243 392.24,179.67 337.4,148.01 282.56,179.67 282.56,243 "/>
<polygon class="st0" points="259.92,542.95 223.03,531.49 194.66,557.71 203.19,595.39 240.08,606.85 268.44,580.63 "/>
<path class="st1" d="M231.7-0.35H0.38V0h232.9C232.75-0.12,232.22-0.23,231.7-0.35z"/>
<path class="st1" d="M289.22,0H432v-0.35H291.19C290.53-0.23,289.88-0.12,289.22,0z"/>
<rect x="0.38" y="648" class="st1" width="431.62" height="0.59"/>
<path class="st1" d="M432-0.35V9.6c0.17-0.52,0.47-0.96,0.83-1.36v-8.6H432z"/>
<path class="st1" d="M432.83,14.34c-0.22-0.58-0.43-1.16-0.65-1.73c-0.07-0.17-0.12-0.35-0.17-0.51v636.49h0.83V14.34z"/>
<polygon class="st0" points="125.19,-0.35 105.55,-0.35 33.33,76.82 65.54,182.86 173.49,207.99 249.23,127.06 217.01,21.01 "/>
<polygon class="st0" points="24.44,226.11 0.38,234.08 0.38,380.28 68.08,357.86 84.29,279.39 "/>
<line class="st2" x1="282.56" y1="179.67" x2="305.55" y2="189.21"/>
<line class="st2" x1="392.24" y1="179.67" x2="369.25" y2="189.89"/>
<line class="st2" x1="33.33" y1="76.82" x2="67.88" y2="87.15"/>
<line class="st2" x1="217.01" y1="21.01" x2="193.22" y2="48.87"/>
<line class="st2" x1="88.54" y1="461.34" x2="108" y2="438.52"/>
<line class="st2" x1="199.05" y1="431.73" x2="167.19" y2="419.34"/>
<line class="st2" x1="432" y1="416.4" x2="387.74" y2="425.53"/>
<line class="st2" x1="324.42" y1="545.63" x2="330.89" y2="512.49"/>
<rect x="0.38" y="648" class="st3" width="432.45" height="0.59"/>
<rect x="253.2" y="303.19" width="59.05" height="50.73"/>
<rect x="282.72" y="49.54" width="21.21" height="106.45"/>
<rect x="303.93" y="597.08" class="st1" width="52.4" height="14.67"/>
<rect x="130.94" y="240.82" class="st1" width="20.79" height="54.06"/>
<rect x="11.59" y="9.6" class="st1" width="17.06" height="17.06"/>
<rect x="15.34" y="443.75" class="st1" width="24.88" height="85.31"/>
<rect x="113.47" y="535.23" class="st1" width="57.11" height="57.11"/>
</svg>
