<svg id="Layer_1" data-name="Layer 1" xmlns="http://www.w3.org/2000/svg" viewBox="0 0 659 767"><defs><style>.cls-1,.cls-2{stroke:#fff;stroke-miterlimit:10;}.cls-2,.cls-3{fill:none;}.cls-4{fill:#fff;}.cls-5{fill:#231f20;}</style></defs><title>background</title><rect x="96.38" width="215.62" height="648"/><polygon class="cls-1" points="263.06 0.65 187.58 0.65 117.73 75.29 153.19 192.01 272 219.66 355.35 130.59 319.89 13.87 263.06 0.65"/><polygon class="cls-1" points="116.22 213.35 96.38 219.92 96.38 366.12 159.85 345.1 176.07 266.63 116.22 213.35"/><polygon points="453.39 354.29 362.3 387.84 345.81 483.51 420.42 545.63 511.51 512.07 528 416.4 453.39 354.29"/><polygon class="cls-1" points="214.15 350.82 167.45 397.53 184.54 461.34 248.35 478.43 295.05 431.73 277.96 367.92 214.15 350.82"/><polygon points="528 555.76 504.56 579.19 517.11 626.01 528 628.93 528 555.76"/><polygon class="cls-1" points="157.09 552.87 108.87 557.77 96.38 585.56 96.38 612.21 117.35 641.29 165.57 636.39 185.44 592.18 157.09 552.87"/><polygon points="433.4 274.66 488.24 243 488.24 179.67 433.4 148.01 378.56 179.67 378.56 243 433.4 274.66"/><polygon class="cls-1" points="355.92 542.95 319.03 531.5 290.67 557.71 299.19 595.39 336.08 606.85 364.44 580.63 355.92 542.95"/><polygon class="cls-1" points="221.19 0.65 201.55 0.65 129.33 77.82 161.54 183.87 269.5 208.99 345.23 128.06 313.01 22.01 221.19 0.65"/><polygon class="cls-1" points="120.44 226.11 96.38 234.08 96.38 380.28 164.08 357.86 180.29 279.38 120.44 226.11"/><line class="cls-2" x1="378.56" y1="179.67" x2="401.55" y2="189.21"/><line class="cls-2" x1="488.24" y1="179.67" x2="465.25" y2="189.89"/><line class="cls-2" x1="129.33" y1="77.82" x2="163.88" y2="88.15"/><line class="cls-2" x1="313.01" y1="22.01" x2="289.22" y2="49.87"/><line class="cls-2" x1="184.54" y1="461.34" x2="204" y2="438.52"/><line class="cls-2" x1="295.05" y1="431.73" x2="263.19" y2="419.34"/><line class="cls-2" x1="528" y1="416.4" x2="483.74" y2="425.53"/><line class="cls-2" x1="420.03" y1="546.59" x2="426.51" y2="513.46"/><path class="cls-3" d="M559.43,648.59H563V648h-3.64C559.38,648.2,559.41,648.39,559.43,648.59Z" transform="translate(96 0)"/><path class="cls-3" d="M563,691.64v-33h-2.36C561.88,669.61,562.75,680.61,563,691.64Z" transform="translate(96 0)"/><path class="cls-3" d="M561.67,724c-1.54,13.68-2.51,29.51-7.58,43H563V704.21C562.84,710.77,562.41,717.35,561.67,724Z" transform="translate(96 0)"/><rect class="cls-3" y="737.13" width="534.85" height="29.87"/><rect x="349.2" y="303.19" width="59.05" height="50.73"/><rect x="387.04" y="35.94" width="21.21" height="106.45"/><rect x="399.93" y="597.08" width="52.4" height="14.67"/><rect class="cls-4" x="226.94" y="240.82" width="20.79" height="54.06"/><rect class="cls-4" x="107.59" y="9.6" width="17.06" height="17.06"/><rect class="cls-4" x="111.34" y="443.75" width="24.88" height="85.31"/><rect class="cls-4" x="209.47" y="524.23" width="57.11" height="57.11"/><path class="cls-5" d="M431.38-36.14" transform="translate(96 0)"/><polyline points="528 0 528 102.5 484.64 110.15 429.22 44.13 445.28 0"/></svg>