<svg xmlns="http://www.w3.org/2000/svg" viewBox="0 0 432.45 648.59"><defs><style>.cls-1,.cls-2{stroke:#fff;stroke-miterlimit:10;}.cls-2{fill:none;}</style></defs><title>background</title><g id="Layer_2" data-name="Layer 2"><rect width="431.62" height="648"/></g><g id="Layer_1" data-name="Layer 1"><polygon points="432.45 555.76 409.01 579.19 421.56 626.01 432.45 628.93 432.45 555.76"/><rect y="648" width="431.62" height="0.59"/><polygon class="cls-1" points="361.81 286.09 421.49 251.63 421.49 182.72 361.81 148.27 302.13 182.72 302.13 251.63 361.81 286.09"/><line class="cls-1" x1="302.13" y1="182.72" x2="327.15" y2="193.1"/><line class="cls-1" x1="421.49" y1="182.72" x2="396.47" y2="193.84"/><polygon class="cls-1" points="92.84 294.37 35.96 321.21 30.77 383.9 82.46 419.73 139.34 392.89 144.53 330.21 92.84 294.37"/><line class="cls-1" x1="30.77" y1="383.9" x2="55.54" y2="369.7"/><line class="cls-1" x1="139.34" y1="392.89" x2="114.76" y2="371.55"/><polygon class="cls-1" points="172.65 489.57 118.36 544.27 138.59 618.63 213.1 638.3 267.39 583.61 247.16 509.24 172.65 489.57"/><line class="cls-1" x1="247.16" y1="509.24" x2="218.38" y2="530.66"/><line class="cls-1" x1="213.1" y1="638.3" x2="206.64" y2="612.29"/><rect y="648" width="432.45" height="0.59"/><polygon class="cls-1" points="264.44 160.82 229.1 41.55 108.15 12.52 22.52 102.75 57.85 222.02 178.81 251.06 264.44 160.82"/><line class="cls-2" x1="22.52" y1="102.75" x2="83" y2="117.27"/><line class="cls-2" x1="178.81" y1="251.06" x2="162.37" y2="195.56"/><polygon class="cls-2" points="276.01 163.6 237.3 32.92 104.77 1.1 10.95 99.97 49.66 230.65 182.19 262.47 276.01 163.6"/><polygon class="cls-1" points="86.46 473.85 49.57 462.39 21.2 488.61 29.72 526.29 66.61 537.75 94.98 511.53 86.46 473.85"/><polygon class="cls-2" points="90.45 470.16 48.37 457.09 16 487 25.73 529.98 67.81 543.05 100.17 513.14 90.45 470.16"/><polygon class="cls-1" points="374.22 110.01 397.13 78.58 381.37 43.03 342.7 38.9 319.79 70.33 335.55 105.88 374.22 110.01"/><polygon class="cls-1" points="370.36 370.38 312.5 305.06 227 322.51 199.36 405.28 257.22 470.6 342.72 453.16 370.36 370.38"/><polygon class="cls-2" points="382.4 367.93 316.39 293.4 218.85 313.31 187.31 407.74 253.32 482.26 350.87 462.36 382.4 367.93"/><polygon class="cls-1" points="374.59 618.6 402.68 580.06 383.35 536.45 335.92 531.39 307.83 569.94 327.16 613.54 374.59 618.6"/><polygon class="cls-2" points="377.17 624.42 409.01 580.73 387.1 531.31 333.34 525.57 301.5 569.26 323.41 618.68 377.17 624.42"/><line class="cls-2" x1="327.16" y1="613.54" x2="342.61" y2="592.34"/><line class="cls-2" x1="402.68" y1="580.06" x2="378.97" y2="577.53"/></g></svg>