<svg xmlns="http://www.w3.org/2000/svg" viewBox="0 0 186.28 177.79"><defs><style>.cls-1,.cls-2{fill:none;}.cls-1,.cls-2,.cls-3,.cls-4{stroke:#231f20;}.cls-1,.cls-11,.cls-13,.cls-14,.cls-2,.cls-3,.cls-4,.cls-5,.cls-7,.cls-9{stroke-miterlimit:10;}.cls-11,.cls-13,.cls-14,.cls-2,.cls-3,.cls-4,.cls-5,.cls-7,.cls-9{stroke-width:0.5px;}.cls-3{fill:#231f20;}.cls-4{fill:#ce7db4;opacity:0.75;}.cls-5{fill:#0e1228;stroke:#3498d4;}.cls-6{fill:#3598d4;}.cls-7{fill:#230d17;stroke:#d82577;}.cls-8{fill:#d82577;}.cls-9{fill:#10100f;stroke:#e07832;}.cls-10{fill:#e07731;}.cls-11{fill:#434343;stroke:#65a857;}.cls-12{fill:#65a857;}.cls-13{fill:#bfbfbf;}.cls-13,.cls-14{stroke:#d33535;}.cls-14{fill:#d33535;}</style></defs><title>resumeGraphic</title><g id="Pentagon"><polygon class="cls-1" points="93.41 16.14 54.95 44.09 16.48 72.03 31.17 117.25 45.86 162.48 93.41 162.48 140.96 162.48 155.66 117.25 170.35 72.03 131.88 44.09 93.41 16.14"/><polyline class="cls-2" points="16.48 72.03 93.41 97.03 93.41 16.14"/><polyline class="cls-2" points="140.96 162.48 93.41 97.03 45.86 162.48"/><line class="cls-2" x1="170.35" y1="72.03" x2="93.41" y2="97.03"/></g><g id="Pink"><circle class="cls-3" cx="93.41" cy="35.77" r="1.8"/><circle class="cls-3" cx="158.69" cy="75.77" r="1.8"/><circle class="cls-3" cx="114.5" cy="126.02" r="1.8"/><circle class="cls-3" cx="50.23" cy="156.34" r="1.8"/><circle class="cls-3" cx="75.56" cy="91.29" r="1.8"/><polygon class="cls-4" points="93.41 35.77 158.69 75.77 114.5 126.02 50.23 156.34 75.56 91.29 93.41 35.77"/></g><g id="Icons"><rect class="cls-5" x="86.96" y="0.25" width="12.91" height="12.91"/><path class="cls-6" d="M103.84,21.78a10.78,10.78,0,0,1,1.84-.15,3,3,0,0,1,2.08.62,2,2,0,0,1,.65,1.55,2.18,2.18,0,0,1-.57,1.58,3.7,3.7,0,0,1-3,.75v3h-1Zm1,3.57a3,3,0,0,0,.79.08c1.16,0,1.86-.56,1.86-1.59s-.69-1.45-1.75-1.45a4.3,4.3,0,0,0-.9.08Z" transform="translate(-14.59 -18.69)"/><path class="cls-6" d="M109.29,28.11a2.52,2.52,0,0,0,1.28.39c.7,0,1-.35,1-.79s-.27-.72-1-1c-1-.34-1.41-.87-1.41-1.51A1.64,1.64,0,0,1,111,23.66a2.62,2.62,0,0,1,1.31.33l-.24.7a2.11,2.11,0,0,0-1.09-.31c-.57,0-.89.33-.89.73s.32.64,1,.9c.92.35,1.4.82,1.4,1.61s-.73,1.59-2,1.59a3,3,0,0,1-1.49-.36Z" transform="translate(-14.59 -18.69)"/><rect class="cls-7" x="139.04" y="164.62" width="12.91" height="12.91"/><path class="cls-8" d="M157.46,186.06v7.42h-1v-7.42Z" transform="translate(-14.59 -18.69)"/><path class="cls-8" d="M163.69,185.67v6.43c0,.47,0,1,.05,1.38h-.87l-.05-.93h0a2,2,0,0,1-1.81,1,2.43,2.43,0,0,1-2.28-2.71c0-1.77,1.09-2.86,2.39-2.86a1.79,1.79,0,0,1,1.6.81h0v-3.17Zm-1,4.65a1.92,1.92,0,0,0,0-.41,1.42,1.42,0,0,0-1.4-1.12c-1,0-1.59.88-1.59,2.06s.53,2,1.57,2a1.45,1.45,0,0,0,1.42-1.16,1.79,1.79,0,0,0,0-.42Z" transform="translate(-14.59 -18.69)"/><rect class="cls-9" x="173.11" y="63.58" width="12.91" height="12.91"/><path class="cls-10" d="M191.54,90.1l-.77,2.34h-1L192.3,85h1.15L196,92.44h-1l-.79-2.34Zm2.43-.74-.73-2.14c-.16-.48-.27-.92-.38-1.35h0c-.11.44-.24.89-.38,1.34l-.72,2.15Z" transform="translate(-14.59 -18.69)"/><path class="cls-10" d="M198.08,85.62a.57.57,0,0,1-.61.59.58.58,0,0,1-.59-.59.6.6,0,0,1,.61-.61A.58.58,0,0,1,198.08,85.62ZM197,92.44V87.11h1v5.33Z" transform="translate(-14.59 -18.69)"/><rect class="cls-11" x="0.25" y="63.58" width="12.91" height="12.91"/><path class="cls-12" d="M16.57,85v1.26H18V85h.4v3H18V86.63H16.57v1.42h-.39V85Z" transform="translate(-14.59 -18.69)"/><path class="cls-12" d="M19.69,85.35h-.92V85H21v.33h-.92v2.7h-.4Z" transform="translate(-14.59 -18.69)"/><path class="cls-12" d="M23.91,86.72c0-.43-.05-.93-.05-1.31h0c-.1.35-.23.73-.38,1.15L22.93,88h-.3l-.49-1.44c-.14-.43-.26-.82-.35-1.18h0c0,.38,0,.88-.06,1.34l-.08,1.3h-.37l.21-3H22l.52,1.46c.12.38.23.71.31,1h0c.08-.3.18-.63.32-1L23.68,85h.5l.19,3H24Z" transform="translate(-14.59 -18.69)"/><path class="cls-12" d="M25,85h.39v2.7h1.3v.33H25Z" transform="translate(-14.59 -18.69)"/><path class="cls-12" d="M20.23,92.45a2,2,0,0,1-.8.14,1.42,1.42,0,0,1-1.5-1.53,1.51,1.51,0,0,1,1.59-1.59,1.73,1.73,0,0,1,.72.13l-.1.32a1.45,1.45,0,0,0-.61-.13,1.13,1.13,0,0,0-1.18,1.26,1.1,1.1,0,0,0,1.16,1.22,1.52,1.52,0,0,0,.64-.13Z" transform="translate(-14.59 -18.69)"/><path class="cls-12" d="M20.67,92.07a1.35,1.35,0,0,0,.7.2c.4,0,.64-.21.64-.52s-.17-.44-.58-.6-.8-.43-.8-.86a.87.87,0,0,1,1-.82,1.54,1.54,0,0,1,.68.14l-.11.32a1.27,1.27,0,0,0-.58-.14c-.41,0-.57.25-.57.45s.18.43.6.59.78.45.78.89-.35.87-1.07.87a1.53,1.53,0,0,1-.77-.19Z" transform="translate(-14.59 -18.69)"/><path class="cls-12" d="M22.89,92.07a1.35,1.35,0,0,0,.7.2c.4,0,.63-.21.63-.52s-.16-.44-.57-.6-.8-.43-.8-.86a.87.87,0,0,1,1-.82,1.46,1.46,0,0,1,.67.14l-.1.32a1.31,1.31,0,0,0-.58-.14c-.42,0-.57.25-.57.45s.18.43.6.59.77.45.77.89-.34.87-1.06.87a1.53,1.53,0,0,1-.77-.19Z" transform="translate(-14.59 -18.69)"/><rect class="cls-13" x="33.64" y="164.62" width="12.91" height="12.91"/><path class="cls-14" d="M54.68,188.53s.87-2.72,3.39-2.72-1.54,8.28-3.39,8.28-5.81-8.28-3.12-8.28A3.22,3.22,0,0,1,54.68,188.53Z" transform="translate(-14.59 -18.69)"/></g></svg>